# xmcd
#
# Track frame offsets: 
#        150
#        10725
#        24429
#        36913
#        51526
#        62225
#        74520
#        83986
#        95795
#        108601
#
# Disc length: 1626 seconds
#
# Revision: 0
# Processed by: cddbd v1.5.1PL2 Copyright (c) Steve Scherf et al.
# Submitted via: ExactAudioCopy v0.95b4
#
DISCID=8e06580a
DTITLE=Larry Ballard - Waiting In The Wings
DYEAR=1977
DGENRE=Country
TTITLE0=Let's Get Down To The Truth
TTITLE1=Every Story In The Book
TTITLE2=Man Of The Hour
TTITLE3=One More Hurtin' Song
TTITLE4=It's All Over Town
TTITLE5=Waiting In The Wings
TTITLE6=Mother Texas
TTITLE7=Sad Situation
TTITLE8=Neon Lights
TTITLE9=You Never Meant To Stay
EXTD=
EXTT0=
EXTT1=
EXTT2=
EXTT3=
EXTT4=
EXTT5=
EXTT6=
EXTT7=
EXTT8=
EXTT9=
PLAYORDER=
